<svg xmlns="http://www.w3.org/2000/svg" width="96" height="96" viewBox="0 0 96 96" role="img" aria-label="D©5¤">
  <defs>
    <linearGradient id="bg" x1="0" y1="0" x2="1" y2="1">
      <stop offset="0%" stop-color="#2563eb"/>
      <stop offset="100%" stop-color="#0f766e"/>
    </linearGradient>
  </defs>
  <rect width="96" height="96" rx="18" fill="url(#bg)"/>
  <path d="M28 34h40v38a4 4 0 0 1-4 4H32a4 4 0 0 1-4-4V34z" fill="#ffffff" opacity="0.95"/>
  <path d="M32 30h32a4 4 0 0 1 4 4v2H28v-2a4 4 0 0 1 4-4z" fill="#e0f2fe"/>
  <path d="M38 48h20v3H38zm0 10h14v3H38z" fill="#0f766e"/>
  <circle cx="62" cy="58" r="11" fill="#fbbf24" stroke="#ffffff" stroke-width="2"/>
  <path d="M58 58l3 3 6-7" fill="none" stroke="#1e3a8a" stroke-width="2.5" stroke-linecap="round" stroke-linejoin="round"/>
</svg>
